<svg id="Layer_1" data-name="Layer 1" xmlns="http://www.w3.org/2000/svg" viewBox="0 0 500 171.72"><defs><style>.cls-1{fill:#1c1e23;}</style></defs><title>logo-elastic-horizontal-dark-ink</title><path class="cls-1" d="M240.06,116.77l3.45-.35.23,7a171.44,171.44,0,0,1-23.16,1.9q-12.83,0-18.17-7.43t-5.35-23.1q0-31.23,24.83-31.24,12,0,17.93,6.71t5.94,21.09l-.47,6.77h-39.2q0,9.86,3.56,14.61t12.42,4.75Q230.91,117.49,240.06,116.77ZM236.85,91q0-10.92-3.5-15.44T222,71.05q-7.9,0-11.88,4.75T206,91Z"/><path class="cls-1" d="M258.18,124.87V46.61h8.91v78.26Z"/><path class="cls-1" d="M323.19,82.69v30c0,3,7.4,2.85,7.4,2.85l-.46,7.87c-6.26,0-11.44.52-14.55-2.49a51.72,51.72,0,0,1-21.37,4.46q-8.19,0-12.47-4.64t-4.28-13.3q0-8.67,4.4-12.77t13.78-5l18.64-1.79v-5.1q0-6.06-2.61-8.67a9.61,9.61,0,0,0-7.13-2.62l-23.4,0V63.56H304q10.1,0,14.67,4.64T323.19,82.69Zm-36.58,24.23q0,10.92,9,10.92a48,48,0,0,0,15.91-2.73l2.73-1V94.56L296.7,96.23q-5.34.47-7.72,3.08C287.4,101.06,286.61,103.59,286.61,106.92Z"/><path class="cls-1" d="M358,71.52q-12.94,0-12.95,9,0,4.15,3,5.88T361.52,90q10.58,1.85,15,5.17t4.39,12.47q0,9.15-5.87,13.42t-17.17,4.28c-4.91,0-21.29-1.82-21.29-1.82l.47-7.72c9.42.91,16.23,1.58,20.82,1.58s8.1-.73,10.51-2.2,3.63-3.92,3.63-7.36-1-5.78-3.09-7-6.58-2.39-13.54-3.5-11.92-2.74-14.85-4.87-4.39-6.1-4.39-11.88,2-10.06,6.11-12.83,9.17-4.16,15.27-4.16c4.82,0,21.58,1.23,21.58,1.23v7.77C370.26,72.16,363,71.52,358,71.52Z"/><path class="cls-1" d="M423.85,72.47H405v28.39q0,10.22,1.49,13.42c1,2.14,3.34,3.21,7.07,3.21l10.57-.72.59,7.37a81.52,81.52,0,0,1-12.11,1.31q-9.27,0-12.83-4.52t-3.57-17.22V72.47h-8.43V64.75h8.43V46.58H405V64.75h18.89Z"/><path class="cls-1" d="M436.23,57.16V46.83h8.91V57.16Zm0,67.71V64.75h8.91v60.12Z"/><path class="cls-1" d="M483.73,63.56A103,103,0,0,1,497,65l2.85.35-.36,7.25a140,140,0,0,0-14-1.07q-10.1,0-13.72,4.81t-3.62,17.82q0,13,3.38,18.11t14.08,5.11l14-1.07.36,7.36a122.15,122.15,0,0,1-16.51,1.67q-13.89,0-19.18-7.13t-5.29-24q0-16.94,5.7-23.76T483.73,63.56Z"/><path class="cls-1" d="M172.39,90A33.94,33.94,0,0,0,150,58a48.21,48.21,0,0,0,.9-9.26A48.69,48.69,0,0,0,62.68,20.2,25.85,25.85,0,0,0,22.62,49.65,34.39,34.39,0,0,0,0,81.77a34,34,0,0,0,22.54,32.09,49.86,49.86,0,0,0-.89,9.26,48.56,48.56,0,0,0,88,28.31,25.81,25.81,0,0,0,40.08-29.34A34.39,34.39,0,0,0,172.39,90ZM66.74,25.39A42.55,42.55,0,0,1,143.55,57.8L105.5,91.15,67.77,74,60.41,58.23ZM47.63,21.16A20.38,20.38,0,0,1,60,25.33L54.34,54.72l-25.85-6.1A20.47,20.47,0,0,1,47.63,21.16Zm-41,60.69A28.78,28.78,0,0,1,26.25,54.78l28.37,6.7,6.66,14.23L25,108.49A28.5,28.5,0,0,1,6.67,81.85Zm99.15,64.52a42.65,42.65,0,0,1-77.92-24,43.34,43.34,0,0,1,.83-8.49L65.84,80.36l37.87,17.26,8.39,16Zm18.94,4.21a20.25,20.25,0,0,1-12.31-4.21l5.62-29.29,25.83,6a20.47,20.47,0,0,1-19.14,27.46ZM146.14,117l-28.44-6.65-7.55-14.43L147.34,63.3a28.44,28.44,0,0,1,18.38,26.58A28.77,28.77,0,0,1,146.14,117Z"/></svg>